<svg xmlns="http://www.w3.org/2000/svg" width="20" height="20"><g><title>background</title><rect id="canvas_background" width="2.873" height="2.873" x="-1" y="-1" fill="none"/><g id="canvasGrid" display="none"><rect id="svg_2" width="100%" height="100%" x="0" y="0" fill="url(#gridpattern)" stroke-width="0"/></g></g><g><title>Layer 1</title><rect id="svg_1" width="7.98" height="7.98" x=".35" y="11.67" fill="none" stroke="#fff" stroke-width=".7"/><g id="svg_48" transform="rotate(-180 5.531461715698242,5.891925811767578)"><line id="svg_21" x1="2.596" x2="8.471" y1="5.958" y2="5.958" fill="none" stroke="#fff" stroke-linecap="null" stroke-linejoin="null" stroke-opacity="null" stroke-width=".7" transform="rotate(-270 5.5332860946655265,5.957503795623779)"/><line id="svg_22" x1="4.788" x2="8.244" y1="4.155" y2="4.155" fill="none" stroke="#fff" stroke-linecap="null" stroke-linejoin="null" stroke-opacity="null" stroke-width=".7" transform="rotate(-315 6.515819549560549,4.154768943786619)"/><line id="svg_23" x1="2.817" x2="6.284" y1="4.115" y2="4.115" fill="none" stroke="#fff" stroke-linecap="null" stroke-linejoin="null" stroke-opacity="null" stroke-width=".7" transform="rotate(-225 4.550753593444824,4.114758014678955)"/></g><g id="svg_52" transform="rotate(-90 14.032793045043947,14.526744842529297)"><line id="svg_49" x1="11.097" x2="16.972" y1="14.592" y2="14.592" fill="none" stroke="#fff" stroke-linecap="null" stroke-linejoin="null" stroke-opacity="null" stroke-width=".7" transform="rotate(-270 14.034617424011229,14.592322349548338)"/><line id="svg_50" x1="13.289" x2="16.745" y1="12.79" y2="12.79" fill="none" stroke="#fff" stroke-linecap="null" stroke-linejoin="null" stroke-opacity="null" stroke-width=".7" transform="rotate(-315 15.017150878906254,12.78958797454834)"/><line id="svg_51" x1="11.319" x2="14.786" y1="12.75" y2="12.75" fill="none" stroke="#fff" stroke-linecap="null" stroke-linejoin="null" stroke-opacity="null" stroke-width=".7" transform="rotate(-225 13.052084922790526,12.749577522277828)"/></g><line id="svg_9" x1=".03" x2="19.992" y1=".35" y2=".35" fill="none" fill-opacity="null" stroke="#fff" stroke-linecap="null" stroke-linejoin="null" stroke-opacity="null" stroke-width=".7"/><line id="svg_10" x1="9.698" x2="29.659" y1="10.29" y2="10.29" fill="none" fill-opacity="null" stroke="#fff" stroke-linecap="null" stroke-linejoin="null" stroke-opacity="null" stroke-width=".7" transform="rotate(-90 19.67840385437012,10.290233612060549)"/><line id="svg_11" x1="11.365" x2="19.992" y1="19.711" y2="19.711" fill="none" fill-opacity="null" stroke="#fff" stroke-linecap="null" stroke-linejoin="null" stroke-opacity="null" stroke-width=".7"/><line id="svg_12" x1="-3.992" x2="4.635" y1="4.446" y2="4.446" fill="none" fill-opacity="null" stroke="#fff" stroke-linecap="null" stroke-linejoin="null" stroke-opacity="null" stroke-width=".7" transform="rotate(-90 0.32159519195556735,4.446199417114259)"/></g></svg>