<svg xmlns="http://www.w3.org/2000/svg" width="20" height="20"><g><title>background</title><rect id="canvas_background" width="2.873" height="2.873" x="-1" y="-1" fill="none"/><g id="canvasGrid" display="none"><rect id="svg_2" width="100%" height="100%" x="0" y="0" fill="url(#gridpattern)" stroke-width="0"/></g></g><g><title>Layer 1</title><rect id="svg_1" width="7.98" height="7.98" x=".35" y="11.67" fill="none" stroke="#fff" stroke-width=".7"/><g id="svg_48" transform="rotate(45 13.504838943481447,6.529325485229491)"><line id="svg_21" x1="10.569" x2="16.444" y1="6.595" y2="6.595" fill="none" stroke="#fff" stroke-linecap="null" stroke-linejoin="null" stroke-opacity="null" stroke-width=".7" transform="rotate(-270 13.50666332244873,6.59490442276001)"/><line id="svg_22" x1="12.761" x2="16.217" y1="4.792" y2="4.792" fill="none" stroke="#fff" stroke-linecap="null" stroke-linejoin="null" stroke-opacity="null" stroke-width=".7" transform="rotate(-315 14.48919677734375,4.792169570922852)"/><line id="svg_23" x1="10.791" x2="14.258" y1="4.752" y2="4.752" fill="none" stroke="#fff" stroke-linecap="null" stroke-linejoin="null" stroke-opacity="null" stroke-width=".7" transform="rotate(-225 12.52413082122803,4.7521586418151855)"/></g><line id="svg_9" x1=".03" x2="19.992" y1=".35" y2=".35" fill="none" fill-opacity="null" stroke="#fff" stroke-linecap="null" stroke-linejoin="null" stroke-opacity="null" stroke-width=".7"/><line id="svg_10" x1="9.698" x2="29.659" y1="10.29" y2="10.29" fill="none" fill-opacity="null" stroke="#fff" stroke-linecap="null" stroke-linejoin="null" stroke-opacity="null" stroke-width=".7" transform="rotate(-90 19.678404808044434,10.290233612060547)"/><line id="svg_11" x1="11.365" x2="19.992" y1="19.711" y2="19.711" fill="none" fill-opacity="null" stroke="#fff" stroke-linecap="null" stroke-linejoin="null" stroke-opacity="null" stroke-width=".7"/><line id="svg_12" x1="-3.992" x2="4.635" y1="4.446" y2="4.446" fill="none" fill-opacity="null" stroke="#fff" stroke-linecap="null" stroke-linejoin="null" stroke-opacity="null" stroke-width=".7" transform="rotate(-90 0.3215951919555664,4.446199417114258)"/></g></svg>