<svg xmlns="http://www.w3.org/2000/svg" width="20" height="20"><g><title>Layer 1</title><rect id="svg_4" width="19.25" height="19.312" x=".375" y=".344" fill="none" fill-opacity="null" stroke="#fff" stroke-opacity="null" stroke-width=".7" transform="rotate(-90 10.000000000000002,10)"/><path id="svg_15" fill="none" fill-opacity="null" stroke="#fff" stroke-opacity="null" stroke-width=".7" d="m3.4138,12.89379" opacity=".5"/><g id="svg_24" stroke="null" transform="matrix(0.35188784313774735,0,0,0.35315617682901945,1.2670821496154747,1.3955994762519355)"><rect id="svg_22" width="22" height="22" x="30.603" y="27.735" fill="none" stroke="null"/><g id="svg_20" stroke="null" display="none"><rect id="svg_21" width="20" height="20" x="31.603" y="28.735" fill="url(#gridpattern)" stroke="null" stroke-width="0"/></g></g><g id="svg_25" stroke="null" transform="matrix(0.5132679861951045,0,0,0.5151179934978228,-5.920325717120704,-5.810334297332091)"><rect id="svg_18" width="14.749" height="11.324" x="29.367" y="31.656" fill="none" fill-opacity="null" stroke="#fff" stroke-opacity="null" stroke-width="1.6"/><path id="svg_17" fill="none" fill-opacity="null" stroke="#fff" stroke-opacity="null" stroke-width="1.6" d="m32.837433,23.040664l3.90411,0l0,0c2.15618,0 3.90411,2.03414 3.90411,4.54338c0,2.50924 -1.74793,4.54338 -3.90411,4.54338l-3.90411,0" transform="rotate(-90 36.74154281616211,27.584035873413082)"/><ellipse id="svg_16" cx="36.742" cy="36.047" fill="#fff" stroke="#fff" stroke-opacity="null" stroke-width="1.6" rx="1.347" ry="1.347"/><rect id="svg_14" width=".639" height="1.689" x="36.422" y="37.85" fill="#fff" stroke="#fff" stroke-opacity="null" stroke-width="1.6"/></g><g id="svg_27" stroke="null"><rect id="svg_1" width="14.236" height="13.562" x="2.882" y="3.219" fill="rgba(255,255,255,0.2)" stroke="#fff" stroke-width="0"/></g></g></svg>