<svg xmlns="http://www.w3.org/2000/svg" width="20" height="20"><g><title>background</title><rect id="canvas_background" width="22" height="22" x="-1" y="-1" fill="none"/><g id="canvasGrid" display="none"><rect id="svg_4" width="100%" height="100%" x="0" y="0" fill="url(#gridpattern)" stroke-width="0"/></g></g><g><title>Layer 1</title><g id="svg_1"><g id="svg_14"><path id="svg_11" fill="none" fill-opacity="null" stroke="#fff" stroke-linecap="null" stroke-linejoin="null" stroke-opacity="null" stroke-width=".7" d="m3.290239,6.523489c-0.68493,-0.63717 12.96804,1.52066 13.88128,1.67996c0.45662,0.49557 0.27397,0.851 0.22831,3.31116c-5.02283,0 -9.08676,0 -14.10959,0c-0.54795,0.40708 -0.04566,-1.91617 0,-4.99112z"/><g id="svg_12"><path id="svg_10" fill="none" fill-opacity="null" stroke="#fff" stroke-opacity="null" stroke-width=".7" d="m0.611989,18.852779c-0.73916,0.1798 1.80936,-6.68826 2.85102,-7.18269c-0.13508,-0.43826 12.33258,0.34781 12.88243,0.68493c0.40239,-0.34836 3.90981,6.71127 3.125,6.49776c-6.28615,0 -12.5723,0 -18.85845,0z" transform="rotate(-180 10.032019615173342,15.199000358581543)"/></g></g><path id="svg_15" fill="none" fill-opacity="null" stroke="#fff" stroke-opacity="null" stroke-width=".7" d="m5.079039,6.734649c6.59928,-4.38356 9.3583,-0.54794 9.33966,-0.57077" transform="rotate(-45 9.748915672302244,5.683496475219727)"/><g id="svg_18" transform="rotate(-14.71426010131836 12.53961658477783,2.7103409767150883)"><line id="svg_16" x1="13.539" x2="11.312" y1="2.842" y2=".615" fill="none" fill-opacity="null" stroke="#fff" stroke-linecap="null" stroke-linejoin="null" stroke-opacity="null" stroke-width=".7"/><line id="svg_17" x1="13.767" x2="11.54" y1="4.805" y2="2.579" fill="none" fill-opacity="null" stroke="#fff" stroke-linecap="null" stroke-linejoin="null" stroke-opacity="null" stroke-width=".7" transform="rotate(-90 12.653772354125977,3.6920793056488024)"/></g></g></g></svg>