<svg xmlns="http://www.w3.org/2000/svg" width="20" height="20"><g><title>background</title><rect id="canvas_background" width="22" height="22" x="-1" y="-1" fill="none"/><g id="canvasGrid" width="100%" height="100%" x="0" y="0" display="none"><rect width="100%" height="100%" x="0" y="0" fill="url(#gridpattern)" stroke-width="0"/></g></g><g><title>Layer 1</title><path id="svg_1" fill="none" fill-opacity="null" stroke="#fff" stroke-linecap="null" stroke-linejoin="null" stroke-opacity="null" stroke-width=".7" d="m10.831998,19.777466c4.71758,0 8.53882,-3.856155 8.53882,-8.616852c0,-4.760697 -2.95366,-7.418782 -5.89042,-8.063904" transform="rotate(12.860657691955566 15.101408958435071,11.437088966369625)"/><path id="svg_2" fill="none" fill-opacity="null" stroke="#fff" stroke-linecap="null" stroke-linejoin="null" stroke-opacity="null" stroke-width=".7" d="m0.88873,-0.502634c4.71758,0 8.53882,3.82123 8.53882,8.53881c0,4.71758 -2.95366,7.35159 -5.89042,7.99087" transform="rotate(-147.07183837890625 5.158140182495116,7.762209892272947)"/><g id="svg_6" transform="rotate(-55.75260925292969 16.101999282836914,3.3272240161895756)"><line id="svg_3" x1="13.617" x2="16.304" y1="4.625" y2="1.938" fill="none" fill-opacity="null" stroke="#fff" stroke-linecap="null" stroke-linejoin="null" stroke-opacity="null" stroke-width=".7"/><line id="svg_5" x1="15.9" x2="18.587" y1="4.717" y2="2.029" fill="none" fill-opacity="null" stroke="#fff" stroke-linecap="null" stroke-linejoin="null" stroke-opacity="null" stroke-width=".7" transform="rotate(-90 17.243551254272464,3.372886180877684)"/></g><g id="svg_9" transform="rotate(135 3.681907176971435,16.523571014404293)"><line id="svg_7" x1="1.197" x2="3.884" y1="17.822" y2="15.134" fill="none" fill-opacity="null" stroke="#fff" stroke-linecap="null" stroke-linejoin="null" stroke-opacity="null" stroke-width=".7"/><line id="svg_8" x1="3.48" x2="6.167" y1="17.913" y2="15.225" fill="none" fill-opacity="null" stroke="#fff" stroke-linecap="null" stroke-linejoin="null" stroke-opacity="null" stroke-width=".7" transform="rotate(-90 4.823459625244145,16.56923294067383)"/></g></g></svg>